<svg baseProfile="full" height="1024" width="1024" xmlns="http://www.w3.org/2000/svg"><circle cx="512" cy="512" r="480" style="opacity:.4" transform="translate(16 16)"/><circle cx="512" cy="512" r="480" style="fill:#cecece" transform="translate(-16 -16)"/><circle cx="512" cy="512" r="480" style="fill:#fefaef"/><path d="M165.5 902.5Q153 890 153 872V188H79q-18 0-30.5-12.5T36 145q0-18 12.5-30.5T79 102h583q18 0 30.5 12.5T705 145q0 18-12.5 30.5T662 188h-74v684q0 18-12.5 30.5T545 915q-18 0-30.5-12.5T502 872V188H239v684q0 18-12.5 30.5T196 915q-18 0-30.5-12.5" transform="matrix(0 -.8192 .8192 0 118.4 831.514)" style="opacity:.4"/><path d="M165.5 902.5Q153 890 153 872V188H79q-18 0-30.5-12.5T36 145q0-18 12.5-30.5T79 102h583q18 0 30.5 12.5T705 145q0 18-12.5 30.5T662 188h-74v684q0 18-12.5 30.5T545 915q-18 0-30.5-12.5T502 872V188H239v684q0 18-12.5 30.5T196 915q-18 0-30.5-12.5" transform="matrix(0 -.8192 .8192 0 102.4 815.514)" style="fill:#1e3d59"/></svg>