<svg baseProfile="full" height="1024" width="2883.123" xmlns="http://www.w3.org/2000/svg"><circle cx="512" cy="512" r="480" style="opacity:.4" transform="translate(16 16)"/><circle cx="512" cy="512" r="480" style="fill:#cecece" transform="translate(-16 -16)"/><circle cx="512" cy="512" r="480" style="fill:#fefaef"/><path d="M165.5 902.5Q153 890 153 872V188H79q-18 0-30.5-12.5T36 145q0-18 12.5-30.5T79 102h583q18 0 30.5 12.5T705 145q0 18-12.5 30.5T662 188h-74v684q0 18-12.5 30.5T545 915q-18 0-30.5-12.5T502 872V188H239v684q0 18-12.5 30.5T196 915q-18 0-30.5-12.5" transform="matrix(0 -.8192 .8192 0 118.4 831.514)" style="opacity:.4"/><path d="M165.5 902.5Q153 890 153 872V188H79q-18 0-30.5-12.5T36 145q0-18 12.5-30.5T79 102h583q18 0 30.5 12.5T705 145q0 18-12.5 30.5T662 188h-74v684q0 18-12.5 30.5T545 915q-18 0-30.5-12.5T502 872V188H239v684q0 18-12.5 30.5T196 915q-18 0-30.5-12.5" transform="matrix(0 -.8192 .8192 0 102.4 815.514)" style="fill:#1e3d59"/><path d="M1048.55 690.202q-48.537-28.263-74.956-78.03-26.42-49.766-27.648-114.278 1.228-64.512 27.648-114.278 26.419-49.766 74.956-78.029 48.538-28.262 113.05-28.262t112.742 28.262q48.23 28.263 74.957 78.336 26.727 50.074 27.955 113.971-1.228 63.898-27.955 113.972-26.726 50.073-74.957 78.336-48.23 28.262-112.742 28.262t-113.05-28.262m198.452-46.08q36.25-22.119 55.296-60.212 19.046-38.092 19.046-86.016 0-47.923-19.046-86.016-19.047-38.092-55.296-60.21-36.25-22.12-85.402-22.12-49.766 0-85.709 22.12-35.942 22.118-54.989 60.21-19.046 38.093-19.046 86.016 0 47.924 19.046 86.016 19.047 38.093 54.99 60.212 35.942 22.118 85.708 22.118 49.152 0 85.402-22.118m337.305 63.283q-7.987-7.987-7.987-19.661V335.693h-125.338q-11.059 0-18.432-7.373-7.372-7.373-7.372-18.432 0-11.06 7.372-18.74 7.373-7.68 18.432-7.68h305.972q11.059 0 18.739 7.68 7.68 7.68 7.68 18.74 0 11.06-7.68 18.432-7.68 7.373-18.74 7.373H1632.23v352.051q0 11.674-8.294 19.66-8.294 7.988-19.968 7.988t-19.66-7.987m349.592-17.203q-48.537-28.263-74.956-78.03-26.42-49.766-27.648-114.278 1.229-64.512 27.648-114.278 26.42-49.766 74.957-78.029 48.537-28.262 113.05-28.262 64.511 0 112.742 28.262 48.23 28.263 74.957 78.336 26.726 50.074 27.955 113.971-1.229 63.898-27.955 113.972-26.727 50.073-74.957 78.336-48.23 28.262-112.743 28.262-64.512 0-113.05-28.262m198.452-46.08q36.25-22.119 55.296-60.212 19.046-38.092 19.046-86.016 0-47.923-19.046-86.016-19.046-38.092-55.296-60.21-36.25-22.12-85.402-22.12-49.766 0-85.708 22.12-35.943 22.118-54.99 60.21-19.046 38.093-19.046 86.016 0 47.924 19.047 86.016 19.046 38.093 54.989 60.212 35.942 22.118 85.708 22.118 49.152 0 85.402-22.118m237.773 63.283q-7.987-7.987-7.987-19.661V320.947q0-16.589 11.673-28.57 11.674-11.98 28.263-11.98h20.275q12.288 0 22.425 7.373 10.138 7.372 15.053 18.432l139.469 347.75 139.469-347.75q4.915-11.06 15.053-18.432 10.137-7.373 22.425-7.373h20.275q16.59 0 28.263 11.98 11.673 11.981 11.673 28.57v366.797q0 11.674-7.987 19.66-7.987 7.988-19.66 7.988-11.674 0-19.969-7.987-8.294-7.987-8.294-19.661v-348.98l-141.926 350.823q-4.916 11.674-15.668 18.74-10.752 7.065-23.654 7.065t-23.654-7.066q-10.752-7.065-15.668-18.739l-141.926-350.822v348.979q0 11.674-8.294 19.66-8.295 7.988-19.968 7.988-11.674 0-19.661-7.987" style="opacity:.4"/><path d="M1032.55 674.202q-48.537-28.263-74.956-78.03-26.42-49.766-27.648-114.278 1.228-64.512 27.648-114.278 26.419-49.766 74.956-78.029 48.538-28.262 113.05-28.262t112.742 28.262q48.23 28.263 74.957 78.336 26.727 50.074 27.955 113.971-1.228 63.898-27.955 113.972-26.726 50.073-74.957 78.336-48.23 28.262-112.742 28.262t-113.05-28.262m198.452-46.08q36.25-22.119 55.296-60.212 19.046-38.092 19.046-86.016 0-47.923-19.046-86.016-19.047-38.092-55.296-60.21-36.25-22.12-85.402-22.12-49.766 0-85.709 22.12-35.942 22.118-54.989 60.21-19.046 38.093-19.046 86.016 0 47.924 19.046 86.016 19.047 38.093 54.99 60.212 35.942 22.118 85.708 22.118 49.152 0 85.402-22.118m337.305 63.283q-7.987-7.987-7.987-19.661V319.693h-125.338q-11.059 0-18.432-7.373-7.372-7.373-7.372-18.432 0-11.06 7.372-18.74 7.373-7.68 18.432-7.68h305.972q11.059 0 18.739 7.68 7.68 7.68 7.68 18.74 0 11.06-7.68 18.432-7.68 7.373-18.74 7.373H1616.23v352.051q0 11.674-8.294 19.66-8.294 7.988-19.968 7.988t-19.66-7.987m349.592-17.203q-48.537-28.263-74.956-78.03-26.42-49.766-27.648-114.278 1.229-64.512 27.648-114.278 26.42-49.766 74.957-78.029 48.537-28.262 113.05-28.262 64.511 0 112.742 28.262 48.23 28.263 74.957 78.336 26.726 50.074 27.955 113.971-1.229 63.898-27.955 113.972-26.727 50.073-74.957 78.336-48.23 28.262-112.743 28.262-64.512 0-113.05-28.262m198.452-46.08q36.25-22.119 55.296-60.212 19.046-38.092 19.046-86.016 0-47.923-19.046-86.016-19.046-38.092-55.296-60.21-36.25-22.12-85.402-22.12-49.766 0-85.708 22.12-35.943 22.118-54.99 60.21-19.046 38.093-19.046 86.016 0 47.924 19.047 86.016 19.046 38.093 54.989 60.212 35.942 22.118 85.708 22.118 49.152 0 85.402-22.118m237.773 63.283q-7.987-7.987-7.987-19.661V304.947q0-16.589 11.673-28.57 11.674-11.98 28.263-11.98h20.275q12.288 0 22.425 7.373 10.138 7.372 15.053 18.432l139.469 347.75 139.469-347.75q4.915-11.06 15.053-18.432 10.137-7.373 22.425-7.373h20.275q16.59 0 28.263 11.98 11.673 11.981 11.673 28.57v366.797q0 11.674-7.987 19.66-7.987 7.988-19.66 7.988-11.674 0-19.969-7.987-8.294-7.987-8.294-19.661v-348.98l-141.926 350.823q-4.916 11.674-15.668 18.74-10.752 7.065-23.654 7.065t-23.654-7.066q-10.752-7.065-15.668-18.739l-141.926-350.822v348.979q0 11.674-8.294 19.66-8.295 7.988-19.968 7.988-11.674 0-19.661-7.987" style="fill:#1e3d59"/></svg>